<svg width="37" height="37" viewBox="0 0 37 37" fill="none" xmlns="http://www.w3.org/2000/svg">
<path d="M6.16663 18.5C6.16663 15.3989 6.16663 13.8484 6.54472 12.5855C7.41346 9.68367 9.68361 7.41352 12.5854 6.54478C13.8483 6.16669 15.3989 6.16669 18.5 6.16669V6.16669C21.6011 6.16669 23.1516 6.16669 24.4145 6.54478C27.3163 7.41352 29.5865 9.68367 30.4552 12.5855C30.8333 13.8484 30.8333 15.3989 30.8333 18.5V26.8334C30.8333 28.719 30.8333 29.6618 30.2475 30.2476C29.6617 30.8334 28.7189 30.8334 26.8333 30.8334H18.5C15.3989 30.8334 13.8483 30.8334 12.5854 30.4553C9.68361 29.5865 7.41346 27.3164 6.54472 24.4146C6.16663 23.1517 6.16663 21.6011 6.16663 18.5V18.5Z" stroke="black" stroke-width="2"/>
<path d="M13.875 18.5L23.125 18.5" stroke="#33363F" stroke-width="2" stroke-linecap="round" stroke-linejoin="round"/>
<path d="M18.5 13.875L18.5 23.125" stroke="#33363F" stroke-width="2" stroke-linecap="round" stroke-linejoin="round"/>
</svg>
