<svg width="54" height="79" viewBox="0 0 54 79" fill="none" xmlns="http://www.w3.org/2000/svg">
<g id="Group" filter="url(#filter0_d_537_7791)">
<path id="Vector" d="M29.4914 7.27411L20.9606 31.5756L13.135 12.5462L3 15.8126C7.52611 23.9871 20.965 48.0617 20.965 48.0617C23.6987 42.6905 41.4835 7.0741 43.6299 2.71686L29.4914 7.27411Z" fill="#52D6B6"/>
<g id="Group_2">
<g id="Group_3">
<path id="Vector_2" d="M42.6569 8.77728C42.1115 10.0873 41.5561 11.3925 40.9976 12.6965C40.4394 14.0005 39.876 15.3022 39.3111 16.6034C38.1799 19.2046 37.036 21.7998 35.8849 24.3922C33.5799 29.5751 31.2429 34.7432 28.8772 39.8984C26.5123 45.0537 24.1178 50.1953 21.6909 55.3226C20.4763 57.8854 19.2544 60.445 18.0198 62.9986C17.4017 64.2751 16.782 65.5511 16.1571 66.8243C15.5326 68.0979 14.9049 69.3699 14.2668 70.6371C14.8118 69.3271 15.3672 68.0215 15.9254 66.7175C16.4832 65.4135 17.0465 64.1115 17.6115 62.8106C18.7426 60.2094 19.8865 57.6138 21.0376 55.0218C23.3426 49.8389 25.68 44.6709 28.0465 39.516C30.4127 34.3612 32.8072 29.2195 35.2337 24.0926C36.4483 21.5298 37.6701 18.9702 38.9047 16.4166C39.5228 15.1401 40.1421 13.8641 40.767 12.5909C41.3919 11.3169 42.0192 10.0449 42.6569 8.77728Z" fill="#52D6B6"/>
</g>
</g>
<g id="Group_4">
<g id="Group_5">
<path id="Vector_3" d="M47.4892 1C47.0086 2.22601 46.5087 3.44403 46.0105 4.66284C45.5099 5.88045 45.0024 7.09486 44.4914 8.30768C43.4682 10.7329 42.4285 13.1513 41.3745 15.5633C40.3209 17.9754 39.2525 20.381 38.1677 22.7794C37.0813 25.177 35.9822 27.5695 34.8411 29.9431C35.808 27.4931 36.8168 25.0614 37.8385 22.6354C38.8617 20.2102 39.9014 17.7918 40.9558 15.3801C42.0102 12.9685 43.0782 10.5625 44.163 8.16407C44.706 6.96526 45.2526 5.76765 45.8059 4.57324C46.3613 3.37962 46.9159 2.18561 47.4892 1Z" fill="#52D6B6"/>
</g>
</g>
<g id="Group_6">
<g id="Group_7">
<path id="Vector_4" d="M22.7774 48.2905C22.3299 49.3561 21.866 50.4141 21.4029 51.4729C20.9383 52.5309 20.4672 53.5861 19.9937 54.6401C19.0452 56.7474 18.0823 58.8486 17.1074 60.9442C16.1325 63.0398 15.1448 65.1302 14.1431 67.2143C13.1398 69.2975 12.1258 71.3759 11.075 73.4383C11.9747 71.3095 12.9109 69.1963 13.8582 67.0883C14.8068 64.981 15.7697 62.8798 16.7454 60.7842C17.7207 58.6886 18.7084 56.5986 19.71 54.5145C20.2115 53.4729 20.7161 52.4325 21.2263 51.3945C21.7382 50.3581 22.2496 49.3209 22.7774 48.2905Z" fill="#52D6B6"/>
</g>
</g>
<path id="Vector_5" d="M51.0001 39.7864L47.9355 46.1784L47.7921 46.0092C46.9554 45.0228 45.9741 44.1548 44.9029 43.4248C44.3675 43.0592 43.8086 42.7284 43.2312 42.4332L42.7953 42.218L42.3522 42.0184C42.0569 41.8892 41.7589 41.7756 41.4556 41.68C40.8503 41.4892 40.2234 41.3732 39.6077 41.3856C39.5306 41.3848 39.4543 41.3924 39.3779 41.3964C39.3396 41.3976 39.302 41.4036 39.2641 41.4072C39.2265 41.4116 39.1882 41.4144 39.151 41.4204C39.0763 41.4328 39.0008 41.442 38.9276 41.4592C38.8909 41.4672 38.8537 41.4736 38.8174 41.4828L38.7087 41.5116C38.5653 41.5528 38.4238 41.6004 38.2908 41.6632C38.1573 41.7248 38.0283 41.7948 37.9096 41.8784C37.6695 42.0416 37.4661 42.2508 37.3067 42.4896C37.2284 42.6104 37.1624 42.7368 37.1061 42.872C37.0789 42.9416 37.0498 43.0104 37.029 43.0808C37.0038 43.1504 36.987 43.2212 36.9682 43.2916C36.9023 43.5744 36.8875 43.8604 36.9351 44.1444C36.9774 44.4288 37.0825 44.71 37.216 44.9832C37.3502 45.2568 37.5208 45.5212 37.7054 45.7784C37.8912 46.0352 38.0926 46.2856 38.3035 46.5304C38.7259 47.0204 39.1798 47.4921 39.6428 47.9569C39.8754 48.1885 40.1091 48.4197 40.3456 48.6489L41.0588 49.3401C41.5363 49.8089 41.9998 50.2957 42.4397 50.8049C42.8796 51.3141 43.2975 51.8461 43.6779 52.4077C43.9328 52.7841 44.1713 53.1733 44.3883 53.5761C44.495 53.7741 44.5965 53.9753 44.692 54.1797C44.9796 54.8009 45.2078 55.4541 45.3616 56.1277C45.4335 56.4657 45.4935 56.8069 45.523 57.1518C45.5598 57.4962 45.565 57.843 45.5586 58.189C45.549 58.3614 45.5458 58.5346 45.5258 58.7062C45.517 58.7922 45.5102 58.8782 45.5002 58.9642L45.4635 59.2202L45.4451 59.3482L45.4211 59.475L45.3728 59.729C45.3544 59.813 45.3336 59.8966 45.3145 59.9802C45.2945 60.0638 45.2761 60.1478 45.2517 60.2302C45.205 60.395 45.161 60.561 45.1051 60.723C45.0783 60.8042 45.0524 60.8858 45.0248 60.967L44.9357 61.207C44.8789 61.3686 44.8094 61.5242 44.7447 61.6818C44.7135 61.761 44.6756 61.8382 44.64 61.9154L44.5313 62.1478C44.2333 62.763 43.8761 63.351 43.4601 63.8962C43.0446 64.441 42.5703 64.943 42.0449 65.3846C41.5203 65.8266 40.945 66.2086 40.3361 66.5214C39.7271 66.8351 39.0843 67.0795 38.4258 67.2559C38.2037 67.3155 37.9799 67.3675 37.755 67.4119C37.3127 67.4999 36.8656 67.5603 36.4177 67.5959C35.7412 67.6499 35.0632 67.6359 34.3911 67.5831L34.1394 67.5611C34.0555 67.5531 33.9712 67.5479 33.8881 67.5351L33.3875 67.4683C33.304 67.4587 33.2217 67.4419 33.1386 67.4279L32.8904 67.3839L32.6423 67.3399C32.56 67.3231 32.4781 67.3043 32.3962 67.2863C32.2324 67.2499 32.0682 67.2151 31.9047 67.1767L31.4185 67.0482C31.3378 67.0262 31.2563 67.0075 31.1764 66.9827L30.9358 66.909C30.776 66.8598 30.6154 66.813 30.4564 66.7611L29.9821 66.597L29.7456 66.5146L29.5118 66.4246L29.0444 66.2442C28.8897 66.1814 28.7367 66.1146 28.5833 66.0498L28.3527 65.9518L28.2377 65.9026L28.1242 65.8498L27.6695 65.6386C27.5932 65.6046 27.5197 65.5654 27.445 65.5282L27.2212 65.4154L26.9979 65.3026C26.9236 65.2642 26.8508 65.2234 26.7773 65.1838C26.6311 65.1038 26.4836 65.025 26.3382 64.9434L25.9063 64.691C25.7617 64.6086 25.6214 64.5178 25.4796 64.4302C25.3385 64.3414 25.1959 64.2558 25.0581 64.1618L24.6413 63.8858L24.2318 63.599C24.0943 63.505 23.9625 63.4034 23.8282 63.3046L23.6277 63.1554C23.5605 63.1062 23.4962 63.053 23.4303 63.0022L23.2337 62.8478C23.1686 62.7962 23.1023 62.7458 23.0387 62.6918L22.654 62.3726L22.2784 62.0422C22.2152 61.9882 22.1553 61.9298 22.0942 61.873L21.9116 61.7022C21.4293 61.2414 20.9683 60.7554 20.5607 60.2202L20.4988 60.139L23.4507 53.7817C23.4507 53.7817 24.5638 55.2749 24.6229 55.3417C24.6817 55.4069 24.74 55.4797 24.7939 55.5385L24.9582 55.7237L25.0405 55.8161L25.1256 55.9065C25.239 56.0261 25.3497 56.1485 25.4676 56.2645C25.5843 56.3813 25.6989 56.5001 25.8196 56.6129C26.2951 57.0714 26.7941 57.505 27.3127 57.913C27.8305 58.3222 28.3719 58.7014 28.9301 59.0522C29.4887 59.4026 30.066 59.723 30.6601 60.007C31.2563 60.287 31.8672 60.5362 32.5005 60.7074C33.1318 60.8786 33.7858 60.9798 34.4351 60.945C34.7587 60.9266 35.0792 60.8706 35.386 60.7726C35.4248 60.7618 35.4615 60.7458 35.4995 60.7326C35.5371 60.7182 35.5754 60.7062 35.6118 60.6894C35.6853 60.657 35.7596 60.6266 35.8303 60.5882C35.9742 60.5174 36.1088 60.4302 36.2379 60.3358L36.3326 60.2622C36.3641 60.2378 36.3929 60.2098 36.4233 60.1838C36.4848 60.1326 36.5391 60.0734 36.5959 60.0174C36.7037 59.8994 36.8076 59.7766 36.8951 59.6422C37.0765 59.3778 37.2128 59.0818 37.3143 58.777C37.3622 58.6242 37.4038 58.469 37.4261 58.311C37.4329 58.2714 37.4389 58.2322 37.4421 58.1926L37.4537 58.0734C37.4557 57.9938 37.4625 57.9146 37.4581 57.835C37.4537 57.5162 37.3846 57.2006 37.2795 56.8974C37.1712 56.5949 37.0234 56.3053 36.8544 56.0281C36.685 55.7505 36.4936 55.4853 36.2898 55.2293C35.8815 54.7173 35.4292 54.2381 34.9601 53.7757C34.7264 53.5441 34.4862 53.3181 34.2445 53.0933C34.0012 52.8713 33.7579 52.6421 33.5193 52.4109C32.566 51.4837 31.6714 50.4885 30.9035 49.3937C30.5203 48.8461 30.1699 48.2737 29.8678 47.6745C29.7887 47.5265 29.722 47.372 29.6505 47.2204C29.6137 47.1448 29.583 47.0664 29.5502 46.9892L29.4531 46.7564L29.3648 46.52C29.3364 46.4408 29.3045 46.3628 29.2801 46.2824C29.2294 46.1216 29.173 45.9628 29.1311 45.7992C28.9501 45.15 28.8342 44.4788 28.8146 43.8016C28.7934 43.1256 28.8506 42.444 29.0028 41.784C29.1522 41.1236 29.3788 40.482 29.6705 39.8736C29.9605 39.2644 30.3141 38.6836 30.7289 38.1492C31.1436 37.6147 31.6199 37.1267 32.1457 36.7003C32.6715 36.2735 33.2468 35.9079 33.8546 35.6099C34.4623 35.3119 35.1016 35.0811 35.7564 34.9155C36.4113 34.7495 37.0809 34.6479 37.7534 34.6027C38.4258 34.5583 39.1014 34.5651 39.7707 34.6295C40.4403 34.6915 41.1044 34.8003 41.7601 34.9451C42.4141 35.0959 43.0578 35.2871 43.6915 35.5047C44.0051 35.6219 44.322 35.7319 44.6296 35.8639L44.8622 35.9591L44.978 36.0071L45.0927 36.0579L45.5498 36.2615C46.1563 36.5411 46.7544 36.8399 47.3398 37.1643C47.9231 37.4919 48.4941 37.844 49.0459 38.2252C49.7315 38.698 50.3876 39.2176 51.0001 39.7864Z" fill="#52D6B6"/>
</g>
<defs>
<filter id="filter0_d_537_7791" x="0" y="0" width="54" height="78.4384" filterUnits="userSpaceOnUse" color-interpolation-filters="sRGB">
<feFlood flood-opacity="0" result="BackgroundImageFix"/>
<feColorMatrix in="SourceAlpha" type="matrix" values="0 0 0 0 0 0 0 0 0 0 0 0 0 0 0 0 0 0 127 0" result="hardAlpha"/>
<feOffset dy="2"/>
<feGaussianBlur stdDeviation="1.5"/>
<feComposite in2="hardAlpha" operator="out"/>
<feColorMatrix type="matrix" values="0 0 0 0 0 0 0 0 0 0 0 0 0 0 0 0 0 0 0.5 0"/>
<feBlend mode="normal" in2="BackgroundImageFix" result="effect1_dropShadow_537_7791"/>
<feBlend mode="normal" in="SourceGraphic" in2="effect1_dropShadow_537_7791" result="shape"/>
</filter>
</defs>
</svg>
