<svg width="29" height="26" viewBox="0 0 29 26" fill="none" xmlns="http://www.w3.org/2000/svg">
<g id="Component 13">
<path id="Rectangle 25" d="M17.875 1H11.125C6.35203 1 3.96554 1 2.48277 2.50631C1 4.01262 1 6.43698 1 11.2857V14.7143C1 19.563 1 21.9874 2.48277 23.4937C3.96554 25 6.35203 25 11.125 25H17.875C22.648 25 25.0345 25 26.5172 23.4937C28 21.9874 28 19.563 28 14.7143V11.2857C28 6.43698 28 4.01262 26.5172 2.50631C25.0345 1 22.648 1 17.875 1Z" stroke="white" stroke-width="2"/>
<path id="Vector 70" d="M7 7H11" stroke="white" stroke-width="2" stroke-linecap="round"/>
<path id="Vector 57" d="M19 17V15C19 14.0572 19 13.5858 19.2929 13.2929C19.5858 13 20.0572 13 21 13H26C26.9428 13 27.4142 13 27.7071 13.2929C28 13.5858 28 14.0572 28 15V17C28 17.9428 28 18.4142 27.7071 18.7071C27.4142 19 26.9428 19 26 19H21C20.0572 19 19.5858 19 19.2929 18.7071C19 18.4142 19 17.9428 19 17Z" stroke="white" stroke-width="2"/>
</g>
</svg>
